<svg width="17" height="18" viewBox="0 0 17 18" fill="none" xmlns="http://www.w3.org/2000/svg">
<path d="M14.375 3.09155C13.6109 2.31997 12.7008 1.70819 11.6979 1.29185C10.695 0.875514 9.61922 0.662951 8.53331 0.666549C3.98331 0.666549 0.27498 4.37488 0.27498 8.92488C0.27498 10.3832 0.658313 11.7999 1.37498 13.0499L0.208313 17.3332L4.58331 16.1832C5.79165 16.8416 7.14998 17.1915 8.53331 17.1915C13.0833 17.1915 16.7916 13.4832 16.7916 8.93322C16.7916 6.72488 15.9333 4.64988 14.375 3.09155ZM8.53331 15.7915C7.29998 15.7915 6.09165 15.4582 5.03331 14.8332L4.78331 14.6832L2.18331 15.3665L2.87498 12.8332L2.70831 12.5749C2.02294 11.4808 1.65908 10.2159 1.65831 8.92488C1.65831 5.14155 4.74165 2.05822 8.52498 2.05822C10.3583 2.05822 12.0833 2.77488 13.375 4.07488C14.0147 4.71144 14.5216 5.46867 14.8663 6.30266C15.2111 7.13664 15.3868 8.03079 15.3833 8.93322C15.4 12.7165 12.3166 15.7915 8.53331 15.7915ZM12.3 10.6582C12.0916 10.5582 11.075 10.0582 10.8916 9.98322C10.7 9.91655 10.5666 9.88322 10.425 10.0832C10.2833 10.2915 9.89165 10.7582 9.77498 10.8916C9.65831 11.0332 9.53331 11.0499 9.32498 10.9415C9.11665 10.8415 8.44998 10.6166 7.66665 9.91655C7.04998 9.36655 6.64165 8.69155 6.51665 8.48322C6.39998 8.27488 6.49998 8.16655 6.60831 8.05822C6.69998 7.96655 6.81665 7.81655 6.91665 7.69988C7.01665 7.58322 7.05831 7.49155 7.12498 7.35822C7.19165 7.21655 7.15831 7.09988 7.10831 6.99988C7.05831 6.89988 6.64165 5.88322 6.47498 5.46655C6.30831 5.06655 6.13331 5.11655 6.00831 5.10822H5.60831C5.46665 5.10822 5.24998 5.15822 5.05831 5.36655C4.87498 5.57488 4.34165 6.07488 4.34165 7.09155C4.34165 8.10822 5.08331 9.09155 5.18331 9.22488C5.28331 9.36655 6.64165 11.4499 8.70831 12.3415C9.19998 12.5582 9.58331 12.6832 9.88331 12.7749C10.375 12.9332 10.825 12.9082 11.1833 12.8582C11.5833 12.7999 12.4083 12.3582 12.575 11.8749C12.75 11.3915 12.75 10.9832 12.6916 10.8916C12.6333 10.7999 12.5083 10.7582 12.3 10.6582Z" fill="white"/>
</svg>
